<svg xmlns="http://www.w3.org/2000/svg" width="182" height="83" fill="none" viewBox="0 0 182 83">
  <path fill="#7A7CA8" fill-opacity=".85" d="M105.797 47h-3.235L92.314 27.277V47H89.08V21.406h3.234l10.283 19.81v-19.81h3.2V47zm14.923 0c-.187-.41-.322-1.102-.404-2.074-1.101 1.617-2.508 2.426-4.219 2.426-1.722 0-3.07-.48-4.043-1.442-.961-.972-1.441-2.338-1.441-4.095 0-1.934.656-3.47 1.969-4.606 1.312-1.137 3.111-1.717 5.396-1.74h2.285v-2.022c0-1.137-.252-1.945-.756-2.426-.503-.48-1.271-.72-2.302-.72-.938 0-1.699.281-2.285.844-.586.55-.879 1.253-.879 2.109h-3.112c0-.973.287-1.898.862-2.777a5.97 5.97 0 012.32-2.092c.973-.504 2.057-.756 3.252-.756 1.945 0 3.422.486 4.43 1.459 1.019.96 1.541 2.367 1.564 4.219v9.597c.012 1.465.211 2.737.598 3.815V47h-3.235zm-4.148-2.478c.762 0 1.488-.212 2.18-.633.691-.422 1.195-.95 1.511-1.582v-4.535h-1.757c-1.477.023-2.643.357-3.499 1.001-.855.633-1.283 1.524-1.283 2.672 0 1.078.217 1.864.651 2.356.433.48 1.166.72 2.197.72zm18.228.175c1.032 0 1.858-.316 2.479-.949.621-.645.961-1.558 1.02-2.742h2.935c-.07 1.828-.721 3.346-1.951 4.553-1.219 1.195-2.713 1.793-4.483 1.793-2.355 0-4.154-.739-5.396-2.215-1.23-1.489-1.846-3.697-1.846-6.627v-2.092c0-2.871.616-5.05 1.846-6.54 1.23-1.5 3.023-2.25 5.379-2.25 1.945 0 3.486.616 4.623 1.847 1.148 1.23 1.758 2.912 1.828 5.044h-2.935c-.071-1.406-.411-2.46-1.02-3.163-.598-.704-1.43-1.055-2.496-1.055-1.383 0-2.408.457-3.076 1.37-.668.903-1.014 2.392-1.037 4.466v2.425c0 2.239.328 3.82.984 4.747.668.925 1.717 1.388 3.146 1.388zm17.877-13.799a7.564 7.564 0 00-1.406-.123c-1.594 0-2.707.873-3.34 2.62V47h-3.111V27.98h3.023l.053 1.934c.832-1.523 2.01-2.285 3.533-2.285.493 0 .903.082 1.231.246l.017 3.023zM159.146 47h-3.111V27.98h3.111V47zm.246-24.064c0 .527-.146.966-.439 1.318-.293.351-.738.527-1.336.527-.586 0-1.026-.175-1.318-.527-.293-.352-.44-.791-.44-1.319 0-.527.147-.972.44-1.335.292-.364.732-.545 1.318-.545.586 0 1.025.187 1.318.562.305.363.457.803.457 1.319zm13.905 19.195c0-.668-.252-1.242-.756-1.723-.504-.48-1.477-1.043-2.918-1.687-1.676-.692-2.86-1.283-3.551-1.776-.68-.492-1.19-1.048-1.529-1.67-.34-.632-.51-1.382-.51-2.25 0-1.546.562-2.83 1.687-3.85 1.137-1.03 2.584-1.546 4.342-1.546 1.852 0 3.34.539 4.465 1.617 1.125 1.078 1.688 2.461 1.688 4.149h-3.094c0-.856-.287-1.583-.862-2.18-.574-.61-1.306-.914-2.197-.914-.914 0-1.635.24-2.162.72-.516.47-.773 1.102-.773 1.899 0 .633.187 1.142.562 1.53.387.386 1.307.896 2.76 1.528 2.308.903 3.879 1.788 4.711 2.655.832.855 1.248 1.945 1.248 3.27 0 1.652-.568 2.976-1.705 3.972-1.137.984-2.66 1.477-4.571 1.477-1.98 0-3.585-.569-4.816-1.705-1.23-1.137-1.846-2.579-1.846-4.325h3.129c.035 1.055.358 1.881.967 2.479.609.597 1.465.896 2.566.896 1.032 0 1.817-.228 2.356-.685.539-.469.809-1.096.809-1.881z"/>
  <path fill="#000" fill-opacity=".79" d="M91.453 62.66L90.352 69h-2.895l2.965-17.063 5.906.012c1.781 0 3.18.489 4.195 1.465 1.016.969 1.457 2.254 1.325 3.855-.141 1.657-.817 2.973-2.028 3.95-1.21.968-2.797 1.453-4.757 1.453l-3.61-.012zm.41-2.379l3.317.024c1.047 0 1.902-.266 2.566-.797.672-.531 1.074-1.274 1.207-2.227.11-.867-.055-1.562-.492-2.086-.43-.53-1.082-.816-1.957-.855l-3.61-.012-1.03 5.953zm10.828 2.332c.133-1.242.497-2.37 1.09-3.386.602-1.016 1.371-1.801 2.309-2.356.937-.555 1.976-.816 3.117-.785 1.086.016 2.023.305 2.813.867.789.563 1.363 1.332 1.722 2.309.367.976.496 2.062.387 3.258-.125 1.343-.492 2.53-1.102 3.562-.601 1.031-1.375 1.824-2.32 2.379-.937.547-1.98.805-3.129.773-1.078-.015-2.012-.3-2.801-.855-.781-.563-1.355-1.328-1.722-2.297-.367-.976-.5-2.05-.399-3.223l.035-.246zm2.731 1.606c.039.82.254 1.48.644 1.98.399.492.95.75 1.653.774.953.023 1.75-.344 2.39-1.102.649-.758 1.055-1.793 1.219-3.105l.07-1.149c0-1-.199-1.785-.597-2.355-.399-.57-.977-.871-1.735-.903-1.187-.03-2.125.551-2.812 1.746-.414.727-.676 1.563-.785 2.508-.063.657-.078 1.192-.047 1.606zm10.652-1.606c.133-1.242.496-2.37 1.09-3.386.602-1.016 1.371-1.801 2.309-2.356.937-.555 1.976-.816 3.117-.785 1.086.016 2.023.305 2.812.867.789.563 1.364 1.332 1.723 2.309.367.976.496 2.062.387 3.258-.125 1.343-.492 2.53-1.102 3.562-.601 1.031-1.375 1.824-2.32 2.379-.938.547-1.981.805-3.129.773-1.078-.015-2.012-.3-2.801-.855-.781-.563-1.355-1.328-1.722-2.297-.368-.976-.5-2.05-.399-3.223l.035-.246zm2.731 1.606c.039.82.254 1.48.644 1.98.399.492.949.75 1.653.774.953.023 1.75-.344 2.39-1.102.649-.758 1.055-1.793 1.219-3.105l.07-1.149c0-1-.199-1.785-.597-2.355-.399-.57-.977-.871-1.735-.903-1.187-.03-2.125.551-2.812 1.746-.414.727-.676 1.563-.785 2.508-.063.657-.079 1.192-.047 1.606zM131.742 69h-2.777l3.129-18h2.777l-3.129 18zm10.699-3.516c.133-.773-.371-1.308-1.511-1.605-1.133-.305-1.907-.547-2.321-.727-1.609-.687-2.386-1.734-2.332-3.14.039-1.14.555-2.082 1.547-2.825 1-.75 2.196-1.117 3.586-1.101 1.344.016 2.438.395 3.281 1.137.852.742 1.27 1.715 1.254 2.918l-2.754-.012c.016-.586-.144-1.043-.48-1.371-.336-.336-.797-.512-1.383-.528-.617 0-1.148.153-1.594.458-.437.304-.691.703-.761 1.195-.11.71.39 1.207 1.5 1.488 1.109.273 1.929.527 2.461.762 1.546.68 2.293 1.742 2.238 3.187a3.513 3.513 0 01-.797 2.11c-.484.593-1.137 1.05-1.957 1.37a6.783 6.783 0 01-2.613.434c-1.383-.015-2.532-.418-3.446-1.207-.906-.789-1.351-1.8-1.336-3.035l2.684.012c.016.68.219 1.195.609 1.547.391.351.926.531 1.606.539.687 0 1.258-.14 1.711-.422.461-.29.73-.684.808-1.184z"/>
  <g clip-path="url(#clip0)" filter="url(#filter0_d)">
    <path stroke="#7A7CA8" stroke-linecap="round" stroke-linejoin="round" stroke-width="2" d="M7.28 71.42c.808.995 1.878 1.801 3.118 2.349 1.24.547 2.61.82 3.996.794a9.484 9.484 0 003.997-.794c1.24-.548 2.31-1.354 3.118-2.348.808-.995 1.878-1.8 3.117-2.348a9.483 9.483 0 013.997-.795 9.483 9.483 0 013.997.795c1.24.547 2.31 1.353 3.117 2.348.808.994 1.878 1.8 3.118 2.347 1.24.548 2.61.82 3.996.795a9.484 9.484 0 003.997-.794c1.24-.548 2.31-1.354 3.118-2.348.808-.995 1.878-1.8 3.117-2.348a9.483 9.483 0 013.997-.795 9.483 9.483 0 013.997.795c1.24.547 2.31 1.353 3.117 2.348.808.994 1.878 1.8 3.118 2.347 1.24.548 2.611.82 3.997.795a9.484 9.484 0 003.996-.794c1.24-.548 2.31-1.354 3.118-2.348M7.28 58.851c.808.995 1.878 1.8 3.118 2.348 1.24.547 2.61.82 3.996.794a9.481 9.481 0 003.997-.794c1.24-.548 2.31-1.353 3.118-2.348.808-.995 1.878-1.8 3.117-2.348a9.482 9.482 0 013.997-.794 9.481 9.481 0 013.997.794c1.24.548 2.31 1.353 3.117 2.348.808.995 1.878 1.8 3.118 2.348 1.24.547 2.61.82 3.996.794a9.48 9.48 0 003.997-.794c1.24-.548 2.31-1.353 3.118-2.348.808-.995 1.878-1.8 3.117-2.348a9.481 9.481 0 013.997-.794 9.481 9.481 0 013.997.794c1.24.548 2.31 1.353 3.117 2.348.808.995 1.878 1.8 3.118 2.348a9.48 9.48 0 003.997.794 9.481 9.481 0 003.996-.794c1.24-.548 2.31-1.353 3.118-2.348M53.523 46.282V22.713c0-1.25.562-2.45 1.563-3.333 1-.884 2.358-1.381 3.773-1.381s2.772.497 3.773 1.38c1 .885 1.562 2.084 1.562 3.334M32.18 46.282V22.713c0-1.25-.562-2.45-1.563-3.333-1-.884-2.358-1.381-3.773-1.381s-2.772.497-3.773 1.38c-1 .885-1.562 2.084-1.562 3.334M53.523 24.285H32.18M32.18 39.997h21.343"/>
  </g>
  <defs>
    <clipPath id="clip0">
      <path fill="#fff" d="M0 0h86.32v75H0z"/>
    </clipPath>
    <filter id="filter0_d" width="94.32" height="83" x="-4" y="0" color-interpolation-filters="sRGB" filterUnits="userSpaceOnUse">
      <feFlood flood-opacity="0" result="BackgroundImageFix"/>
      <feColorMatrix in="SourceAlpha" values="0 0 0 0 0 0 0 0 0 0 0 0 0 0 0 0 0 0 127 0"/>
      <feOffset dy="4"/>
      <feGaussianBlur stdDeviation="2"/>
      <feColorMatrix values="0 0 0 0 0 0 0 0 0 0 0 0 0 0 0 0 0 0 0.25 0"/>
      <feBlend in2="BackgroundImageFix" result="effect1_dropShadow"/>
      <feBlend in="SourceGraphic" in2="effect1_dropShadow" result="shape"/>
    </filter>
  </defs>
</svg>
